<svg width="76" height="28" viewBox="0 0 76 28" fill="none" xmlns="http://www.w3.org/2000/svg">
<g filter="url(#filter0_d_1_10)">
<path d="M4.1 19.4182V4.87273H9.01478C10.1559 4.87273 11.0886 5.07869 11.8131 5.49062C12.5422 5.89782 13.082 6.44943 13.4324 7.14545C13.7828 7.84148 13.958 8.61799 13.958 9.475C13.958 10.332 13.7828 11.1109 13.4324 11.8116C13.0867 12.5124 12.5517 13.0711 11.8273 13.4878C11.1028 13.8997 10.1748 14.1057 9.04318 14.1057H5.52046V12.5432H8.98637C9.76762 12.5432 10.395 12.4082 10.8685 12.1384C11.342 11.8685 11.6852 11.5039 11.8983 11.0446C12.1161 10.5806 12.225 10.0574 12.225 9.475C12.225 8.89261 12.1161 8.37178 11.8983 7.9125C11.6852 7.45322 11.3396 7.09337 10.8614 6.83295C10.3831 6.5678 9.74868 6.43523 8.95796 6.43523H5.86137V19.4182H4.1ZM17.9075 19.4182H16.0609L21.4018 4.87273H23.22L28.5609 19.4182H26.7143L22.3678 7.17386H22.2541L17.9075 19.4182ZM18.5893 13.7364H26.0325V15.2989H18.5893V13.7364ZM32.8266 19.4182V4.87273H37.7413C38.8777 4.87273 39.8105 5.06686 40.5396 5.45511C41.2688 5.83864 41.8086 6.36657 42.159 7.03892C42.5093 7.71127 42.6845 8.47595 42.6845 9.33295C42.6845 10.19 42.5093 10.9499 42.159 11.6128C41.8086 12.2757 41.2712 12.7965 40.5467 13.1753C39.8223 13.5493 38.8966 13.7364 37.7697 13.7364H33.7925V12.1455H37.7129C38.4894 12.1455 39.1144 12.0318 39.5879 11.8045C40.0661 11.5773 40.4118 11.2553 40.6249 10.8386C40.8427 10.4172 40.9516 9.91534 40.9516 9.33295C40.9516 8.75057 40.8427 8.24157 40.6249 7.80597C40.4071 7.37036 40.059 7.03419 39.5808 6.79744C39.1026 6.55597 38.4705 6.43523 37.6845 6.43523H34.5879V19.4182H32.8266ZM39.6732 12.8841L43.2527 19.4182H41.2072L37.6845 12.8841H39.6732ZM47.6195 19.4182V4.87273H49.3809V12.0886H49.5514L56.0854 4.87273H58.3866L52.2786 11.4352L58.3866 19.4182H56.2559L51.1991 12.6568L49.3809 14.7023V19.4182H47.6195ZM62.6664 19.4182V4.87273H71.4448V6.43523H64.4278V11.35H70.9903V12.9125H64.4278V17.8557H71.5585V19.4182H62.6664ZM66.2744 3.39545L68.0073 0.0999999H69.9675L67.7516 3.39545H66.2744Z" fill="white"/>
<path d="M4.1 19.4182H4V19.5182H4.1V19.4182ZM4.1 4.87273V4.77273H4V4.87273H4.1ZM11.8131 5.49062L11.7636 5.57756L11.7643 5.57793L11.8131 5.49062ZM13.4324 7.14545L13.3431 7.19042L13.3431 7.19042L13.4324 7.14545ZM13.4324 11.8116L13.3429 11.7669L13.3427 11.7674L13.4324 11.8116ZM11.8273 13.4878L11.8767 13.5747L11.8771 13.5745L11.8273 13.4878ZM5.52046 14.1057H5.42046V14.2057H5.52046V14.1057ZM5.52046 12.5432V12.4432H5.42046V12.5432H5.52046ZM10.8685 12.1384L10.8189 12.0515L10.8189 12.0515L10.8685 12.1384ZM11.8983 11.0446L11.8078 11.0021L11.8076 11.0025L11.8983 11.0446ZM11.8983 7.9125L11.8076 7.95459L11.8079 7.95535L11.8983 7.9125ZM10.8614 6.83295L10.8129 6.92041L10.8135 6.92078L10.8614 6.83295ZM5.86137 6.43523V6.33523H5.76137V6.43523H5.86137ZM5.86137 19.4182V19.5182H5.96137V19.4182H5.86137ZM4.1 19.4182H4.2V4.87273H4.1H4V19.4182H4.1ZM4.1 4.87273V4.97273H9.01478V4.87273V4.77273H4.1V4.87273ZM9.01478 4.87273V4.97273C10.1447 4.97273 11.0588 5.17678 11.7636 5.57755L11.8131 5.49062L11.8625 5.4037C11.1185 4.98061 10.1671 4.77273 9.01478 4.77273V4.87273ZM11.8131 5.49062L11.7643 5.57793C12.4773 5.97612 13.0023 6.51355 13.3431 7.19042L13.4324 7.14545L13.5217 7.10049C13.1617 6.38532 12.6071 5.81952 11.8618 5.40332L11.8131 5.49062ZM13.4324 7.14545L13.3431 7.19042C13.6857 7.87114 13.858 8.63203 13.858 9.475H13.958H14.058C14.058 8.60396 13.8798 7.81181 13.5217 7.10049L13.4324 7.14545ZM13.958 9.475H13.858C13.858 10.318 13.6857 11.0813 13.3429 11.7669L13.4324 11.8116L13.5218 11.8564C13.8798 11.1405 14.058 10.3461 14.058 9.475H13.958ZM13.4324 11.8116L13.3427 11.7674C13.0065 12.4491 12.4859 12.9936 11.7774 13.4011L11.8273 13.4878L11.8771 13.5745C12.6175 13.1486 13.167 12.5757 13.5221 11.8559L13.4324 11.8116ZM11.8273 13.4878L11.7778 13.4009C11.0729 13.8017 10.1634 14.0057 9.04318 14.0057V14.1057V14.2057C10.1862 14.2057 11.1328 13.9977 11.8767 13.5747L11.8273 13.4878ZM9.04318 14.1057V14.0057H5.52046V14.1057V14.2057H9.04318V14.1057ZM5.52046 14.1057H5.62046V12.5432H5.52046H5.42046V14.1057H5.52046ZM5.52046 12.5432V12.6432H8.98637V12.5432V12.4432H5.52046V12.5432ZM8.98637 12.5432V12.6432C9.7779 12.6432 10.4243 12.5067 10.918 12.2252L10.8685 12.1384L10.8189 12.0515C10.3657 12.3098 9.75733 12.4432 8.98637 12.4432V12.5432ZM10.8685 12.1384L10.918 12.2252C11.4081 11.9459 11.7665 11.5663 11.989 11.0867L11.8983 11.0446L11.8076 11.0025C11.6039 11.4415 11.2758 11.791 10.8189 12.0515L10.8685 12.1384ZM11.8983 11.0446L11.9888 11.0871C12.2137 10.6081 12.325 10.0701 12.325 9.475H12.225H12.125C12.125 10.0447 12.0185 10.5531 11.8078 11.0021L11.8983 11.0446ZM12.225 9.475H12.325C12.325 8.87995 12.2137 8.34415 11.9887 7.86965L11.8983 7.9125L11.8079 7.95535C12.0185 8.39941 12.125 8.90528 12.125 9.475H12.225ZM11.8983 7.9125L11.989 7.87042C11.7662 7.39018 11.4047 7.01498 10.9092 6.74513L10.8614 6.83295L10.8135 6.92078C11.2744 7.17176 11.6042 7.51626 11.8076 7.95458L11.8983 7.9125ZM10.8614 6.83295L10.9099 6.7455C10.4116 6.46926 9.75856 6.33523 8.95796 6.33523V6.43523V6.53523C9.73879 6.53523 10.3547 6.66635 10.8129 6.92041L10.8614 6.83295ZM8.95796 6.43523V6.33523H5.86137V6.43523V6.53523H8.95796V6.43523ZM5.86137 6.43523H5.76137V19.4182H5.86137H5.96137V6.43523H5.86137ZM5.86137 19.4182V19.3182H4.1V19.4182V19.5182H5.86137V19.4182ZM17.9075 19.4182V19.5182H17.9781L18.0018 19.4516L17.9075 19.4182ZM16.0609 19.4182L15.9671 19.3837L15.9177 19.5182H16.0609V19.4182ZM21.4018 4.87273V4.77273H21.332L21.308 4.83826L21.4018 4.87273ZM23.22 4.87273L23.3139 4.83826L23.2898 4.77273H23.22V4.87273ZM28.5609 19.4182V19.5182H28.7042L28.6548 19.3837L28.5609 19.4182ZM26.7143 19.4182L26.6201 19.4516L26.6437 19.5182H26.7143V19.4182ZM22.3678 7.17386L22.462 7.14041L22.4384 7.07386H22.3678V7.17386ZM22.2541 7.17386V7.07386H22.1835L22.1599 7.14041L22.2541 7.17386ZM18.5893 13.7364V13.6364H18.4893V13.7364H18.5893ZM26.0325 13.7364H26.1325V13.6364H26.0325V13.7364ZM26.0325 15.2989V15.3989H26.1325V15.2989H26.0325ZM18.5893 15.2989H18.4893V15.3989H18.5893V15.2989ZM17.9075 19.4182V19.3182H16.0609V19.4182V19.5182H17.9075V19.4182ZM16.0609 19.4182L16.1548 19.4527L21.4957 4.9072L21.4018 4.87273L21.308 4.83826L15.9671 19.3837L16.0609 19.4182ZM21.4018 4.87273V4.97273H23.22V4.87273V4.77273H21.4018V4.87273ZM23.22 4.87273L23.1262 4.9072L28.4671 19.4527L28.5609 19.4182L28.6548 19.3837L23.3139 4.83826L23.22 4.87273ZM28.5609 19.4182V19.3182H26.7143V19.4182V19.5182H28.5609V19.4182ZM26.7143 19.4182L26.8086 19.3847L22.462 7.14041L22.3678 7.17386L22.2735 7.20732L26.6201 19.4516L26.7143 19.4182ZM22.3678 7.17386V7.07386H22.2541V7.17386V7.27386H22.3678V7.17386ZM22.2541 7.17386L22.1599 7.14041L17.8133 19.3847L17.9075 19.4182L18.0018 19.4516L22.3484 7.20732L22.2541 7.17386ZM18.5893 13.7364V13.8364H26.0325V13.7364V13.6364H18.5893V13.7364ZM26.0325 13.7364H25.9325V15.2989H26.0325H26.1325V13.7364H26.0325ZM26.0325 15.2989V15.1989H18.5893V15.2989V15.3989H26.0325V15.2989ZM18.5893 15.2989H18.6893V13.7364H18.5893H18.4893V15.2989H18.5893ZM32.8266 19.4182H32.7266V19.5182H32.8266V19.4182ZM32.8266 4.87273V4.77273H32.7266V4.87273H32.8266ZM40.5396 5.45511L40.4926 5.54338L40.4931 5.54362L40.5396 5.45511ZM42.159 7.03892L42.0703 7.08513L42.0703 7.08514L42.159 7.03892ZM42.159 11.6128L42.0705 11.5661L42.0705 11.5661L42.159 11.6128ZM40.5467 13.1753L40.5926 13.2641L40.5931 13.2639L40.5467 13.1753ZM33.7925 13.7364H33.6925V13.8364H33.7925V13.7364ZM33.7925 12.1455V12.0455H33.6925V12.1455H33.7925ZM39.5879 11.8045L39.545 11.7142L39.5447 11.7144L39.5879 11.8045ZM40.6249 10.8386L40.536 10.7927L40.5358 10.7931L40.6249 10.8386ZM39.5808 6.79744L39.5357 6.88671L39.5365 6.88706L39.5808 6.79744ZM34.5879 6.43523V6.33523H34.4879V6.43523H34.5879ZM34.5879 19.4182V19.5182H34.6879V19.4182H34.5879ZM39.6732 12.8841L39.7609 12.836L39.7324 12.7841H39.6732V12.8841ZM43.2527 19.4182V19.5182H43.4215L43.3404 19.3701L43.2527 19.4182ZM41.2072 19.4182L41.1192 19.4656L41.1476 19.5182H41.2072V19.4182ZM37.6845 12.8841V12.7841H37.517L37.5965 12.9315L37.6845 12.8841ZM32.8266 19.4182H32.9266V4.87273H32.8266H32.7266V19.4182H32.8266ZM32.8266 4.87273V4.97273H37.7413V4.87273V4.77273H32.8266V4.87273ZM37.7413 4.87273V4.97273C38.8672 4.97273 39.7823 5.16517 40.4926 5.54338L40.5396 5.45511L40.5866 5.36685C39.8386 4.96854 38.8882 4.77273 37.7413 4.77273V4.87273ZM40.5396 5.45511L40.4931 5.54362C41.2059 5.91852 41.7301 6.43242 42.0703 7.08513L42.159 7.03892L42.2476 6.99271C41.887 6.30073 41.3317 5.75875 40.5862 5.36661L40.5396 5.45511ZM42.159 7.03892L42.0703 7.08514C42.4123 7.74145 42.5845 8.48992 42.5845 9.33295H42.6845H42.7845C42.7845 8.46198 42.6064 7.68109 42.2476 6.99271L42.159 7.03892ZM42.6845 9.33295H42.5845C42.5845 10.176 42.4123 10.9195 42.0705 11.5661L42.159 11.6128L42.2474 11.6595C42.6064 10.9803 42.7845 10.2039 42.7845 9.33295H42.6845ZM42.159 11.6128L42.0705 11.5661C41.7305 12.2094 41.2086 12.7164 40.5004 13.0867L40.5467 13.1753L40.5931 13.2639C41.3337 12.8766 41.8867 12.3419 42.2474 11.6595L42.159 11.6128ZM40.5467 13.1753L40.5009 13.0864C39.795 13.4509 38.8864 13.6364 37.7697 13.6364V13.7364V13.8364C38.9068 13.8364 39.8496 13.6478 40.5926 13.2641L40.5467 13.1753ZM37.7697 13.7364V13.6364H33.7925V13.7364V13.8364H37.7697V13.7364ZM33.7925 13.7364H33.8925V12.1455H33.7925H33.6925V13.7364H33.7925ZM33.7925 12.1455V12.2455H37.7129V12.1455V12.0455H33.7925V12.1455ZM37.7129 12.1455V12.2455C38.4978 12.2455 39.1393 12.1308 39.6312 11.8947L39.5879 11.8045L39.5447 11.7144C39.0896 11.9328 38.481 12.0455 37.7129 12.0455V12.1455ZM39.5879 11.8045L39.6309 11.8949C40.1262 11.6594 40.4895 11.323 40.7139 10.8842L40.6249 10.8386L40.5358 10.7931C40.3341 11.1876 40.0061 11.4951 39.545 11.7142L39.5879 11.8045ZM40.6249 10.8386L40.7137 10.8846C40.9403 10.4461 41.0516 9.92773 41.0516 9.33295H40.9516H40.8516C40.8516 9.90295 40.745 10.3884 40.536 10.7927L40.6249 10.8386ZM40.9516 9.33295H41.0516C41.0516 8.73806 40.9403 8.2132 40.7143 7.76124L40.6249 7.80597L40.5354 7.85069C40.745 8.26994 40.8516 8.76308 40.8516 9.33295H40.9516ZM40.6249 7.80597L40.7143 7.76124C40.4858 7.30428 40.121 6.95325 39.6252 6.70782L39.5808 6.79744L39.5365 6.88706C39.9971 7.11512 40.3283 7.43644 40.5354 7.85069L40.6249 7.80597ZM39.5808 6.79744L39.6259 6.70818C39.1287 6.45712 38.4794 6.33523 37.6845 6.33523V6.43523V6.53523C38.4616 6.53523 39.0765 6.65481 39.5358 6.88671L39.5808 6.79744ZM37.6845 6.43523V6.33523H34.5879V6.43523V6.53523H37.6845V6.43523ZM34.5879 6.43523H34.4879V19.4182H34.5879H34.6879V6.43523H34.5879ZM34.5879 19.4182V19.3182H32.8266V19.4182V19.5182H34.5879V19.4182ZM39.6732 12.8841L39.5855 12.9321L43.165 19.4662L43.2527 19.4182L43.3404 19.3701L39.7609 12.836L39.6732 12.8841ZM43.2527 19.4182V19.3182H41.2072V19.4182V19.5182H43.2527V19.4182ZM41.2072 19.4182L41.2953 19.3707L37.7725 12.8366L37.6845 12.8841L37.5965 12.9315L41.1192 19.4656L41.2072 19.4182ZM37.6845 12.8841V12.9841H39.6732V12.8841V12.7841H37.6845V12.8841ZM47.6195 19.4182H47.5195V19.5182H47.6195V19.4182ZM47.6195 4.87273V4.77273H47.5195V4.87273H47.6195ZM49.3809 4.87273H49.4809V4.77273H49.3809V4.87273ZM49.3809 12.0886H49.2809V12.1886H49.3809V12.0886ZM49.5514 12.0886V12.1886H49.5957L49.6255 12.1558L49.5514 12.0886ZM56.0854 4.87273V4.77273H56.0411L56.0113 4.80561L56.0854 4.87273ZM58.3866 4.87273L58.4598 4.94086L58.6163 4.77273H58.3866V4.87273ZM52.2786 11.4352L52.2054 11.3671L52.1479 11.4289L52.1992 11.496L52.2786 11.4352ZM58.3866 19.4182V19.5182H58.589L58.466 19.3574L58.3866 19.4182ZM56.2559 19.4182L56.1758 19.4781L56.2058 19.5182H56.2559V19.4182ZM51.1991 12.6568L51.2792 12.5969L51.2058 12.4988L51.1243 12.5904L51.1991 12.6568ZM49.3809 14.7023L49.3062 14.6358L49.2809 14.6643V14.7023H49.3809ZM49.3809 19.4182V19.5182H49.4809V19.4182H49.3809ZM47.6195 19.4182H47.7195V4.87273H47.6195H47.5195V19.4182H47.6195ZM47.6195 4.87273V4.97273H49.3809V4.87273V4.77273H47.6195V4.87273ZM49.3809 4.87273H49.2809V12.0886H49.3809H49.4809V4.87273H49.3809ZM49.3809 12.0886V12.1886H49.5514V12.0886V11.9886H49.3809V12.0886ZM49.5514 12.0886L49.6255 12.1558L56.1596 4.93985L56.0854 4.87273L56.0113 4.80561L49.4772 12.0215L49.5514 12.0886ZM56.0854 4.87273V4.97273H58.3866V4.87273V4.77273H56.0854V4.87273ZM58.3866 4.87273L58.3134 4.8046L52.2054 11.3671L52.2786 11.4352L52.3518 11.5034L58.4598 4.94086L58.3866 4.87273ZM52.2786 11.4352L52.1992 11.496L58.3072 19.4789L58.3866 19.4182L58.466 19.3574L52.358 11.3745L52.2786 11.4352ZM58.3866 19.4182V19.3182H56.2559V19.4182V19.5182H58.3866V19.4182ZM56.2559 19.4182L56.336 19.3583L51.2792 12.5969L51.1991 12.6568L51.119 12.7167L56.1758 19.4781L56.2559 19.4182ZM51.1991 12.6568L51.1243 12.5904L49.3062 14.6358L49.3809 14.7023L49.4556 14.7687L51.2738 12.7233L51.1991 12.6568ZM49.3809 14.7023H49.2809V19.4182H49.3809H49.4809V14.7023H49.3809ZM49.3809 19.4182V19.3182H47.6195V19.4182V19.5182H49.3809V19.4182ZM62.6664 19.4182H62.5664V19.5182H62.6664V19.4182ZM62.6664 4.87273V4.77273H62.5664V4.87273H62.6664ZM71.4448 4.87273H71.5448V4.77273H71.4448V4.87273ZM71.4448 6.43523V6.53523H71.5448V6.43523H71.4448ZM64.4278 6.43523V6.33523H64.3278V6.43523H64.4278ZM64.4278 11.35H64.3278V11.45H64.4278V11.35ZM70.9903 11.35H71.0903V11.25H70.9903V11.35ZM70.9903 12.9125V13.0125H71.0903V12.9125H70.9903ZM64.4278 12.9125V12.8125H64.3278V12.9125H64.4278ZM64.4278 17.8557H64.3278V17.9557H64.4278V17.8557ZM71.5585 17.8557H71.6585V17.7557H71.5585V17.8557ZM71.5585 19.4182V19.5182H71.6585V19.4182H71.5585ZM66.2744 3.39545L66.1859 3.34891L66.1088 3.49545H66.2744V3.39545ZM68.0073 0.0999999V-9.68575e-08H67.9469L67.9188 0.0534567L68.0073 0.0999999ZM69.9675 0.0999999L70.0505 0.1558L70.1553 -9.68575e-08H69.9675V0.0999999ZM67.7516 3.39545V3.49545H67.8049L67.8346 3.45125L67.7516 3.39545ZM62.6664 19.4182H62.7664V4.87273H62.6664H62.5664V19.4182H62.6664ZM62.6664 4.87273V4.97273H71.4448V4.87273V4.77273H62.6664V4.87273ZM71.4448 4.87273H71.3448V6.43523H71.4448H71.5448V4.87273H71.4448ZM71.4448 6.43523V6.33523H64.4278V6.43523V6.53523H71.4448V6.43523ZM64.4278 6.43523H64.3278V11.35H64.4278H64.5278V6.43523H64.4278ZM64.4278 11.35V11.45H70.9903V11.35V11.25H64.4278V11.35ZM70.9903 11.35H70.8903V12.9125H70.9903H71.0903V11.35H70.9903ZM70.9903 12.9125V12.8125H64.4278V12.9125V13.0125H70.9903V12.9125ZM64.4278 12.9125H64.3278V17.8557H64.4278H64.5278V12.9125H64.4278ZM64.4278 17.8557V17.9557H71.5585V17.8557V17.7557H64.4278V17.8557ZM71.5585 17.8557H71.4585V19.4182H71.5585H71.6585V17.8557H71.5585ZM71.5585 19.4182V19.3182H62.6664V19.4182V19.5182H71.5585V19.4182ZM66.2744 3.39545L66.3629 3.442L68.0958 0.146543L68.0073 0.0999999L67.9188 0.0534567L66.1859 3.34891L66.2744 3.39545ZM68.0073 0.0999999V0.2H69.9675V0.0999999V-9.68575e-08H68.0073V0.0999999ZM69.9675 0.0999999L69.8846 0.0442002L67.6687 3.33966L67.7516 3.39545L67.8346 3.45125L70.0505 0.1558L69.9675 0.0999999ZM67.7516 3.39545V3.29545H66.2744V3.39545V3.49545H67.7516V3.39545Z" fill="white"/>
</g>
<defs>
<filter id="filter0_d_1_10" x="0" y="0" width="75.6584" height="27.5182" filterUnits="userSpaceOnUse" color-interpolation-filters="sRGB">
<feFlood flood-opacity="0" result="BackgroundImageFix"/>
<feColorMatrix in="SourceAlpha" type="matrix" values="0 0 0 0 0 0 0 0 0 0 0 0 0 0 0 0 0 0 127 0" result="hardAlpha"/>
<feOffset dy="4"/>
<feGaussianBlur stdDeviation="2"/>
<feComposite in2="hardAlpha" operator="out"/>
<feColorMatrix type="matrix" values="0 0 0 0 0 0 0 0 0 0 0 0 0 0 0 0 0 0 0.25 0"/>
<feBlend mode="normal" in2="BackgroundImageFix" result="effect1_dropShadow_1_10"/>
<feBlend mode="normal" in="SourceGraphic" in2="effect1_dropShadow_1_10" result="shape"/>
</filter>
</defs>
</svg>
